<?xml version="1.0" standalone="no"?>
<!DOCTYPE svg PUBLIC "-//W3C//DTD SVG 20010904//EN"
 "http://www.w3.org/TR/2001/REC-SVG-20010904/DTD/svg10.dtd">
<svg version="1.0" xmlns="http://www.w3.org/2000/svg"
 width="612.000000pt" height="612.000000pt" viewBox="0 0 612.000000 612.000000"
 preserveAspectRatio="xMidYMid meet">
<metadata>
Created by potrace 1.14, written by Peter Selinger 2001-2017
</metadata>
<g transform="translate(0.000000,612.000000) scale(0.100000,-0.100000)"
fill="#000000" stroke="none">
<path d="M3545 4449 c-77 -10 -144 -46 -211 -115 -112 -115 -177 -280 -178
-454 -1 -203 72 -353 204 -422 68 -35 185 -33 257 5 175 91 293 312 293 550 0
278 -155 464 -365 436z"/>
<path d="M2413 4424 c-92 -45 -167 -156 -194 -283 -17 -82 -6 -261 21 -341 51
-153 141 -271 252 -331 57 -31 71 -34 143 -34 67 0 88 5 132 27 157 83 235
334 179 573 -40 171 -152 326 -279 386 -84 40 -179 41 -254 3z"/>
<path d="M1695 3639 c-82 -26 -161 -114 -190 -212 -20 -66 -19 -203 1 -281 54
-210 236 -387 413 -403 113 -11 220 46 273 144 79 144 74 305 -13 482 -53 107
-137 194 -235 242 -57 28 -81 34 -144 36 -41 1 -88 -2 -105 -8z"/>
<path d="M4210 3627 c-120 -50 -202 -127 -268 -255 -104 -199 -91 -425 32
-547 236 -235 656 63 656 465 0 171 -76 301 -200 345 -63 22 -155 19 -220 -8z"/>
<path d="M2932 3371 c-131 -49 -207 -119 -330 -306 -122 -186 -160 -234 -302
-380 -142 -146 -197 -221 -240 -328 -94 -235 -39 -481 136 -609 86 -63 123
-73 269 -73 122 0 140 3 280 42 300 84 322 83 680 -11 129 -35 149 -37 250
-34 98 3 117 7 175 34 175 83 279 286 251 489 -25 179 -102 314 -271 480 -126
122 -171 179 -300 369 -124 185 -195 258 -298 307 -88 43 -216 51 -300 20z"/>
</g>
</svg>
